# xmcd CD database file
#
# Track frame offsets:
#	150
#	20525
#	54500
#	80129
#	99948
#	139516
#	169784
#	187934
#	218459
#
# Disc length: 3330 seconds
#
# Revision: 0
# Processed by: cddbd v1.5.1PL2 Copyright (c) Steve Scherf et al.
# Submitted via: CDex 1.51
#
DISCID=6b0d0009
DTITLE=Greg Harris Vibe Quintet - Open Space
DYEAR=2005
DGENRE=Jazz
TTITLE0=Flank Fuzz (G. Harris)
TTITLE1=Lightness (G. Harris)
TTITLE2=Lucid Dream (R. Fahie)
TTITLE3=Reach (E. Bone)
TTITLE4=Long Corridors (G. Harris)
TTITLE5=Chinaski (M. Fuller)
TTITLE6=Exploration
TTITLE7=Open Space Park (M. Fuller)
TTITLE8=Outroduction
EXTD=YEAR: 2005
EXTT0=
EXTT1=
EXTT2=
EXTT3=
EXTT4=
EXTT5=
EXTT6=
EXTT7=
EXTT8=
PLAYORDER=
